<?xml version="1.0" encoding="utf-8"?>
<!-- Generator: Adobe Illustrator 27.7.0, SVG Export Plug-In . SVG Version: 6.00 Build 0)  -->
<svg version="1.1" id="katman_1" xmlns="http://www.w3.org/2000/svg" xmlns:xlink="http://www.w3.org/1999/xlink" x="0px" y="0px"
	 viewBox="0 0 1080 1080" style="enable-background:new 0 0 1080 1080;" xml:space="preserve">
<style type="text/css">
	.st0{fill:#032233;}
	.st1{fill:#043D63;}
	.st2{fill:#F195AC;}
	.st3{fill:#FFFFFF;}
</style>
<g>
	<g>
		<circle class="st0" cx="504.2" cy="555.6" r="451.2"/>
		<circle class="st0" cx="505" cy="555" r="451.2"/>
		<circle class="st0" cx="505.9" cy="554.4" r="451.2"/>
		<circle class="st0" cx="506.7" cy="553.8" r="451.2"/>
		<circle class="st0" cx="507.5" cy="553.2" r="451.2"/>
		<circle class="st0" cx="508.3" cy="552.6" r="451.2"/>
		<circle class="st0" cx="509.1" cy="552" r="451.2"/>
		<circle class="st0" cx="509.9" cy="551.4" r="451.2"/>
		<circle class="st0" cx="510.7" cy="550.8" r="451.2"/>
		<circle class="st0" cx="511.5" cy="550.2" r="451.2"/>
		<circle class="st0" cx="512.3" cy="549.6" r="451.2"/>
		<circle class="st0" cx="513.1" cy="549" r="451.2"/>
		<circle class="st0" cx="513.9" cy="548.4" r="451.2"/>
		<circle class="st0" cx="514.7" cy="547.8" r="451.2"/>
		<circle class="st0" cx="515.5" cy="547.2" r="451.2"/>
		<circle class="st0" cx="516.3" cy="546.6" r="451.2"/>
		<circle class="st0" cx="517.1" cy="546" r="451.2"/>
		<circle class="st0" cx="517.9" cy="545.4" r="451.2"/>
		<circle class="st0" cx="518.7" cy="544.8" r="451.2"/>
		<circle class="st0" cx="519.5" cy="544.2" r="451.2"/>
		<circle class="st0" cx="520.3" cy="543.6" r="451.2"/>
		<circle class="st0" cx="521.1" cy="543" r="451.2"/>
		<circle class="st0" cx="521.9" cy="542.4" r="451.2"/>
		<circle class="st0" cx="522.7" cy="541.8" r="451.2"/>
		<circle class="st0" cx="523.5" cy="541.2" r="451.2"/>
		<circle class="st0" cx="524.3" cy="540.6" r="451.2"/>
		<circle class="st0" cx="525.1" cy="540" r="451.2"/>
		<circle class="st0" cx="525.9" cy="539.4" r="451.2"/>
		<circle class="st0" cx="526.7" cy="538.8" r="451.2"/>
		<circle class="st0" cx="527.5" cy="538.2" r="451.2"/>
		<circle class="st0" cx="528.3" cy="537.6" r="451.2"/>
		<circle class="st0" cx="529.1" cy="537" r="451.2"/>
		<circle class="st0" cx="529.9" cy="536.4" r="451.2"/>
		<circle class="st0" cx="530.7" cy="535.8" r="451.2"/>
		<circle class="st0" cx="531.5" cy="535.2" r="451.2"/>
		<circle class="st0" cx="532.3" cy="534.6" r="451.2"/>
		<circle class="st0" cx="533.1" cy="534" r="451.2"/>
		<circle class="st0" cx="534" cy="533.4" r="451.2"/>
		<circle class="st0" cx="534.8" cy="532.8" r="451.2"/>
		<circle class="st0" cx="535.6" cy="532.2" r="451.2"/>
		<circle class="st0" cx="536.4" cy="531.6" r="451.2"/>
		<circle class="st0" cx="537.2" cy="531" r="451.2"/>
		<circle class="st0" cx="538" cy="530.4" r="451.2"/>
		<circle class="st0" cx="538.8" cy="529.8" r="451.2"/>
		<circle class="st0" cx="539.6" cy="529.2" r="451.2"/>
		<circle class="st0" cx="540.4" cy="528.6" r="451.2"/>
		<circle class="st0" cx="541.2" cy="528" r="451.2"/>
		<circle class="st0" cx="542" cy="527.4" r="451.2"/>
		<circle class="st0" cx="542.8" cy="526.8" r="451.2"/>
		<circle class="st0" cx="543.6" cy="526.2" r="451.2"/>
		<circle class="st0" cx="544.4" cy="525.6" r="451.2"/>
		<circle class="st0" cx="545.2" cy="525" r="451.2"/>
		<circle class="st0" cx="546" cy="524.4" r="451.2"/>
	</g>
	<circle class="st1" cx="546" cy="524.4" r="451.2"/>
	<g>
		
			<image style="overflow:visible;opacity:0.75;" width="1047" height="644" xlink:href="BD2F2DDC.png"  transform="matrix(1 0 0 1 32 208)">
		</image>
		<g>
			<g>
				<g>
					<g>
						<path d="M646.6,552.5c0.6-0.5,1.1-1.1,1.6-1.6c0.6-0.5,1.1-1.1,1.6-1.6c0.6-0.5,1.1-1.1,1.6-1.6c0.6-0.5,1.1-1.1,1.6-1.6
							c0.6-0.5,1.1-1.1,1.6-1.6c0.6-0.5,1.1-1.1,1.6-1.6c0.6-0.5,1.1-1.1,1.6-1.6c0.6-0.5,1.1-1.1,1.6-1.6c0.6-0.5,1.1-1.1,1.6-1.6
							c0.6-0.5,1.1-1.1,1.6-1.6c0.6-0.5,1.1-1.1,1.6-1.6c0.6-0.5,1.1-1.1,1.6-1.6c8.3-7.7,13.3-18.8,13.2-30
							c-0.2-28.2-25.6-42.7-51.3-44.5c-19.4-1.3-39.3,0.4-58.7,2.3c-17.5,1.7-35,4.4-52.4,7.1c-1.3-2.2-2.8-4.2-4.5-6
							c-6.2-6.3-14.9-9.1-24.2-8.3c-9.6,0.9-21.1,7.2-27.5,14.5c-0.6,0.5-1.1,1.1-1.6,1.6c-0.6,0.5-1.1,1.1-1.6,1.6
							c-0.6,0.5-1.1,1.1-1.6,1.6c-0.6,0.5-1.1,1.1-1.6,1.6c-0.6,0.5-1.1,1.1-1.6,1.6c-0.6,0.5-1.1,1.1-1.6,1.6
							c-0.6,0.5-1.1,1.1-1.6,1.6c-0.5,0.5-1.1,1-1.6,1.6c-24.5,5.1-49,10.6-73.4,16.4c-8.8,1.7-16.7,6.7-22.6,13.4
							c-0.2,0.2-0.4,0.4-0.6,0.6c-0.6,0.5-1.1,1.1-1.7,1.6c-0.6,0.5-1.1,1.1-1.7,1.6c-0.6,0.5-1.1,1.1-1.7,1.6
							c-0.6,0.5-1.1,1.1-1.7,1.6c-0.6,0.5-1.1,1.1-1.7,1.6c-0.6,0.5-1.1,1.1-1.7,1.6c-0.6,0.5-1.1,1.1-1.7,1.6
							c-0.6,0.5-1.1,1.1-1.7,1.6c-0.2,0.1-0.3,0.3-0.5,0.4c-0.7-18.3-17.3-33.3-35.6-31.3c-11.3,1.3-20.3,7.7-28.9,14.9
							c-0.6,0.5-1.1,1.1-1.7,1.7c-0.6,0.5-1.1,1.1-1.7,1.7c-0.6,0.5-1.1,1.1-1.7,1.6c-0.6,0.5-1.1,1.1-1.7,1.7
							c-0.6,0.5-1.1,1.1-1.7,1.7c-0.6,0.5-1.1,1.1-1.7,1.7c-0.6,0.5-1.1,1.1-1.7,1.7c-0.6,0.5-1.1,1.1-1.7,1.7
							c-0.6,0.5-1.1,1.1-1.7,1.7c-0.6,0.5-1.1,1.1-1.7,1.7c-0.6,0.5-1.1,1.1-1.7,1.7c-0.6,0.5-1.1,1.1-1.7,1.7
							c-0.6,0.5-1.1,1.1-1.7,1.7c-0.6,0.5-1.1,1.1-1.7,1.7c-4.1,3.9-7.9,8.7-11.1,14.1c-0.1,0.1-0.1,0.2-0.2,0.4
							c-0.1,0.2-0.1,0.2-0.2,0.4c-7.2,13.1-14.1,26.4-20.9,39.7c-1.9,2.9-3.9,5.9-6,9c-2.1,0-4.2,0.1-6.2,0.4
							c-24.7,2.7-46.6,18.1-63.7,35.2c-0.6,0.6-1.1,1.1-1.7,1.7c-0.6,0.6-1.1,1.1-1.7,1.7c-0.6,0.6-1.1,1.1-1.7,1.7
							c-0.6,0.6-1.1,1.1-1.7,1.7c-0.6,0.6-1.1,1.1-1.7,1.7c-0.6,0.6-1.1,1.1-1.7,1.7c-0.6,0.6-1.1,1.1-1.7,1.7
							c-0.6,0.6-1.1,1.1-1.7,1.7c-0.6,0.6-1.1,1.1-1.7,1.7c-0.6,0.6-1.1,1.1-1.7,1.7c-0.6,0.6-1.1,1.1-1.7,1.7
							c-0.6,0.6-1.1,1.1-1.7,1.7c-0.6,0.6-1.1,1.1-1.7,1.7c-0.6,0.6-1.1,1.1-1.7,1.7c-6.7,6.7-12.4,13.4-16.7,18.8
							c-20.4,25.8-43.6,65.7-33.6,98.9c4,13.3,16.5,24.2,30.7,26.5c4.4,0.7,9.2,0.9,14,0.3c24.8-3.2,44.6-21.8,61.7-38.6
							c4.7,7.8,14.7,14.6,23.6,16.5c0.2,0.1,0.3,0.1,0.5,0.1c0.2,0,0.3,0.1,0.5,0.1c4.7,1,9.8,1.1,15,0.6
							c12.2-1.4,22.8-7.1,33.4-12.9c6.1,6.4,16.1,11.5,24.4,13.6c8.3,2.1,17.4,3,26.2,2.1c21.7-2.2,42.4-15.5,57.3-30.6
							c0.5-0.5,1.1-1.1,1.7-1.7c0.5-0.5,1.1-1.1,1.7-1.7c0.5-0.5,1.1-1.1,1.7-1.7c0.5-0.5,1.1-1.1,1.7-1.7c0.5-0.5,1.1-1.1,1.7-1.6
							c0.5-0.5,1.1-1.1,1.7-1.7c0.5-0.5,1.1-1.1,1.7-1.7c0.5-0.5,1.1-1.1,1.7-1.6c0.5-0.5,1.1-1.1,1.7-1.7c0.5-0.5,1.1-1.1,1.7-1.7
							c0.5-0.5,1.1-1.1,1.7-1.6c0.5-0.5,1.1-1.1,1.7-1.7c0.5-0.5,1.1-1.1,1.7-1.7c0.5-0.5,1.1-1.1,1.7-1.6c1.2-1.2,2.3-2.4,3.5-3.6
							c0.7,1.4,1.3,2.7,2.1,4c6.8,11.5,18.9,18.9,32.1,20.3c3.6,0.4,7.4,0.4,11.1,0c30-3.5,56.8-26.5,77.3-47.4
							c0.2-0.2,0.4-0.4,0.7-0.7c0.6-0.6,1.1-1.1,1.6-1.6c0.6-0.6,1.1-1.1,1.6-1.6c0.6-0.6,1.1-1.1,1.6-1.6c0.6-0.6,1.1-1.1,1.6-1.6
							c0.6-0.6,1.1-1.1,1.6-1.6c0.6-0.6,1.1-1.1,1.7-1.6c0.6-0.6,1.1-1.1,1.6-1.6c0.6-0.6,1.1-1.1,1.6-1.6c0.6-0.6,1.1-1.1,1.6-1.6
							c0.6-0.6,1.1-1.1,1.6-1.6c0.5-0.5,0.9-0.9,1.3-1.3c2.5-2.5,5-4.9,7.1-7.1c10-10.5,15.5-27.3,10-41.2
							c-5.3-13.3-20.2-21.7-34.4-20.7c-8.8,0.6-19.1,6.6-24.8,12.9c-0.3,0.3-0.6,0.6-0.9,0.9c-0.2,0.2-0.5,0.5-0.7,0.7
							c-0.3,0.3-0.5,0.5-0.8,0.8c-0.3,0.3-0.6,0.5-0.9,0.8c-0.3,0.3-0.5,0.5-0.8,0.8c-0.3,0.3-0.6,0.5-0.9,0.8
							c-0.3,0.3-0.5,0.5-0.8,0.8c-0.2,0.2-0.3,0.3-0.5,0.5c5.7-22.4,12.9-44.3,20.2-66.2c16.9-2.7,33.9-5.3,50.9-7
							c14.9-1.4,30.2-2.9,45.2-1.4c6.1,7.8,19.2,11.9,28.5,10.9c8.2-0.9,18.9-5.7,24.7-12.2c0.6-0.5,1.1-1.1,1.6-1.6
							C645.5,553.6,646,553.1,646.6,552.5z M326.3,586c-8.6,5.6-16.9,12.8-24,20c-0.5,0.6-1.1,1.1-1.7,1.7c-0.5,0.6-1.1,1.1-1.7,1.7
							c-0.5,0.5-1.1,1.1-1.7,1.7c-0.5,0.5-1,1-1.5,1.4c2.8-5.9,5.9-12,9.1-18.4c5.3-8.3,8-12.4,13.4-20.7
							C319.9,578.1,322.6,582.5,326.3,586z"/>
						<g>
							<path class="st2" d="M137.2,773.2c-4.8,0.6-9.6,0.4-14-0.4c-14.2-2.3-26.5-13.2-30.6-26.5c-10-33.1,13-72.8,33.6-98.6
								c19.5-24.5,46.3-48.7,78.7-52.2c4.8-0.5,9.5-0.5,14.1,0c7.9-11.3,15.6-22.7,23.2-34.2c6.7-13.3,13.7-26.5,20.8-39.6
								c0.1-0.2,0.1-0.2,0.2-0.4c0.1-0.1,0.1-0.2,0.2-0.4c8.2-13.4,22.5-25.5,38.3-27.3c18.4-2.1,35,13.3,35.6,31.6
								c0.5,14.5-6.5,26.9-13.5,39.1c-6.4,9.9-12.7,19.7-19.1,29.6c-7.3,14.7-14.5,29.5-21.3,44.4c4.5-2.4,9.4-4,14.2-4.5
								c13.9-1.3,29.3,7.1,34.6,20.5c5.6,13.8,0.1,30.6-9.9,41.1c-22.4,23.6-50.4,52.6-84.2,56.8c-5.2,0.6-10.3,0.4-15-0.6
								c-0.2,0-0.3-0.1-0.5-0.1c-0.2-0.1-0.3-0.1-0.5-0.1c-8.9-1.9-18.9-8.7-23.6-16.5C181.7,751.6,162,770.1,137.2,773.2z"/>
							<path class="st2" d="M306.9,681.2c-17.4,18.3-48.5,54.3-76.2,48.6c-20-4.1-17.7-32.5-14.2-47.9c-17.9,22.5-53,74.3-86.3,68.8
								c-40.4-6.6,2.4-75.2,13.7-90.6c16.6-21,45.7-49.6,75.5-41.4c2.7,0.6,4.9,2.2,6.7,4.3c12.1-17.3,25.8-35.2,35.8-52.4
								c7.1-12.3,13.8-26.9,21-40.2c5.5-11.3,31.4-23.7,32-1.9c0.2,6.1-3.1,14.9-9.8,25.7c-6.5,10.1-13.1,20.3-19.6,30.4
								c-12.7,25.5-25.3,51.3-35.8,77.8c-3.7,9.4-13.8,28.2-9,38.3c17.9-3.3,35.6-26.8,47.3-39C300.9,645.9,321.7,667.4,306.9,681.2
								z M208.5,647.4c-18.2-2.5-33.1,17.6-43.1,29.6c-8.5,11.6-16,35.9-27.1,44.1c11.2-0.4,20.8-12.9,27.9-20.4
								C181.6,684.1,195.1,665.6,208.5,647.4z"/>
							<path class="st2" d="M322.2,755.3c-8.9,1-17.9,0-26.2-2.1c-31.2-8.2-43-39.7-37.4-68.9c9.7-50.6,57.7-110.2,112.3-115.6
								c19.7-1.9,36.6,13,36.5,33c0,0.8,0,1.6-0.1,2.5c15.6,22.4,11,50.4,2.6,73.6C396.9,713.7,363.1,750.8,322.2,755.3z
								 M345.2,659.2c-5.4,6-9.7,12.7-12.5,18.2c1.7-1.5,3.4-3.3,5.2-5.5C341.4,667.4,343.7,662.9,345.2,659.2z"/>
							<path class="st2" d="M370.9,590.9c7.9-0.8,14.1,4.9,14.1,13.1c0,2.7-0.9,5.6-2.2,8c46.4,38.5-27.6,133.5-78.2,119.7
								c-34.8-9.5-25.3-50.7-13.1-74.5C306.5,627.8,336,594.6,370.9,590.9z M352.2,626.6c-10.8,6-71,66.2-37.4,76.6
								c30.6,7.4,77.2-59.6,44.9-69.6C356.2,632.6,353.5,629.6,352.2,626.6z"/>
							<path class="st2" d="M451.3,722.6c-3.8,0.4-7.6,0.4-11.1,0c-13.3-1.5-25.3-8.8-32.1-20.3c-23.3-40,0.7-102.1,13.2-141.9
								c-12.9,3-25.7,6-38.6,9.2c-0.4,0.1-0.7,0.2-1.1,0.3c-0.4,0.1-0.7,0.1-1.1,0.2c-0.7,0.1-1.4,0.2-2.1,0.3
								c-8.4,1.1-19.9-2.4-26.2-8c-6.3-5.5-10.9-16.7-10.8-25c0.2-18,15.3-36.1,32.9-40c25.3-5.6,51.3-11.9,77.2-17.2
								c7.9-12.8,21.1-25.4,36.8-26.8c9.3-0.8,18,2,24.2,8.3c1.8,1.8,3.3,3.8,4.5,6c17.4-2.8,34.9-5.4,52.4-7.1
								c19.4-1.9,39.3-3.6,58.7-2.3c25.6,1.7,51.1,16.3,51.3,44.5c0.2,20.1-16.4,38-36.2,40.6c-9.4,1.2-22.4-3.1-28.5-10.9
								c-15-1.5-30.3,0-45.1,1.4c-22.7,2.2-45.5,6-68.1,9.9c-10,29-20,58.2-27.6,87.9c2-1.9,4.2-4,6.2-6.2
								c5.7-6.3,16-12.3,24.8-12.9c14.2-1,29.1,7.4,34.4,20.7c5.5,13.9,0.1,30.6-10,41.2C508.7,696.1,482,718.7,451.3,722.6z"/>
							<path class="st2" d="M643.1,521.1c-7.9,0.8-14-5-14-13.2c0,3.2,0,3.2-9.6,2.4c-44.1-4.4-91.2,6.3-134.2,14.2
								c-10.7,30.4-21.4,60.9-29.9,92c-3.3,12-13.9,52.4-4.6,55.2c10.6,3.2,34.5-20.8,44.9-31.9c13-13.9,31.9,6.7,18.4,20
								c-16.8,16.6-42.5,42.7-69,40.7c-55.7-4.7,0.2-144.3,9.1-169.7c-25,5.5-50,11-74.8,17.2c-8.4,1.3-15.4-4.3-15.4-13
								c0-7.8,5.8-14.7,12.8-15.9c29.4-7,58.9-13.5,88.4-19.5c-0.4,1.3-0.5,2-0.9,3.3c3.1-8.4,11.4-27.1,23.1-27.3
								c9.8-0.2,12.8,8.6,11.5,17.4c40.9-7.2,84.6-14,125.4-12.4c13.8,0.5,32.7,7.9,32.7,24.5C657.1,513.3,651,520.3,643.1,521.1z"
								/>
						</g>
						<g>
							<path class="st3" d="M306.9,681.2c-17.4,18.3-48.5,54.3-76.2,48.6c-20-4.1-17.7-32.5-14.2-47.9c-17.9,22.5-53,74.3-86.3,68.8
								c-40.4-6.6,2.4-75.2,13.7-90.6c16.6-21,45.7-49.6,75.5-41.4c2.7,0.6,4.9,2.2,6.7,4.3c12.1-17.3,25.8-35.2,35.8-52.4
								c7.1-12.3,13.8-26.9,21-40.2c5.5-11.3,31.4-23.7,32-1.9c0.2,6.1-3.1,14.9-9.8,25.7c-6.5,10.1-13.1,20.3-19.6,30.4
								c-12.7,25.5-25.3,51.3-35.8,77.8c-3.7,9.4-13.8,28.2-9,38.3c17.9-3.3,35.6-26.8,47.3-39C300.9,645.9,321.7,667.4,306.9,681.2
								z M208.5,647.4c-18.2-2.5-33.1,17.6-43.1,29.6c-8.5,11.6-16,35.9-27.1,44.1c11.2-0.4,20.8-12.9,27.9-20.4
								C181.6,684.1,195.1,665.6,208.5,647.4z"/>
							<path class="st3" d="M370.9,590.9c7.9-0.8,14.1,4.9,14.1,13.1c0,2.7-0.9,5.6-2.2,8c46.4,38.5-27.6,133.5-78.2,119.7
								c-34.8-9.5-25.3-50.7-13.1-74.5C306.5,627.8,336,594.6,370.9,590.9z M352.2,626.6c-10.8,6-71,66.2-37.4,76.6
								c30.6,7.4,77.2-59.6,44.9-69.6C356.2,632.6,353.5,629.6,352.2,626.6z"/>
							<path class="st3" d="M643.1,521.1c-7.9,0.8-14-5-14-13.2c0,3.2,0,3.2-9.6,2.4c-44.1-4.4-91.2,6.3-134.2,14.2
								c-10.7,30.4-21.4,60.9-29.9,92c-3.3,12-13.9,52.4-4.6,55.2c10.6,3.2,34.5-20.8,44.9-31.9c13-13.9,31.9,6.7,18.4,20
								c-16.8,16.6-42.5,42.7-69,40.7c-55.7-4.7,0.2-144.3,9.1-169.7c-25,5.5-50,11-74.8,17.2c-8.4,1.3-15.4-4.3-15.4-13
								c0-7.8,5.8-14.7,12.8-15.9c29.4-7,58.9-13.5,88.4-19.5c-0.4,1.3-0.5,2-0.9,3.3c3.1-8.4,11.4-27.1,23.1-27.3
								c9.8-0.2,12.8,8.6,11.5,17.4c40.9-7.2,84.6-14,125.4-12.4c13.8,0.5,32.7,7.9,32.7,24.5C657.1,513.3,651,520.3,643.1,521.1z"
								/>
						</g>
					</g>
					<g>
						<path d="M1011.5,317.9c-42-70.6-142.8-78.7-214.9-77.7c-23.6,0.3-47.7,1.9-71.2,4.6C609,257.9,491.3,296.7,392.1,361.9
							c-5.2,2.6-9.6,6-13.3,9.9c-1.1,0.7-2.2,1.4-3.2,2.1c-5.2,2.6-9.6,6-13.3,9.9c-1.1,0.7-2.2,1.4-3.2,2.1
							c-16.1,8.1-27.7,26.7-27.6,44.7c0.1,24.9,20.7,44.3,45.8,41.7c8.6-0.9,17-4.1,24.2-9.5c86.1-56.1,187.9-89.8,288.6-100.7
							c21.5-2.3,43.6-3.5,65.4-3.7c38.4-0.3,119.5-4.8,144,35c7.7,12.5,2.7,28.4-2.5,40c-6.2,13.8-16.1,26.1-27.1,37.8
							c-12.2,7-25.1,12.6-38.5,16.8c-0.2,0.1-0.3,0.1-0.6,0.2c-0.2,0.1-0.3,0.1-0.6,0.2c-8.7,3.2-16.2,7.6-22.4,12.8
							c5.8-10.7,11.7-21.1,17.8-31.6c0.2-0.3,0.2-0.4,0.4-0.7c0.2-0.3,0.2-0.4,0.4-0.7c8.3-14.5,7.9-33.5-0.3-47.8
							c-7.8-13.4-24.2-19.7-38.9-18.2c-11.9,1.2-23.1,7.5-31.1,16.5c-6.1,2.9-11.6,7-16.2,12.2c-8.3,3.7-17,11.5-21.7,19.3
							c-0.1,0.2-0.1,0.2-0.2,0.4c-35.5,59.1-67.9,124.4-78,193.3c-3.5,2.3-6.7,5.1-9.5,8.2c-6.2,2.9-11.7,7-16.3,12
							c-17.2,8-29.9,27.2-29.7,46.3c0.2,13.2,6.2,26.2,16.9,34.5c0.5,0.4,0.7,0.6,1.2,0.9c0.5,0.3,0.8,0.5,1.3,0.8
							c33.9,18.9,71,24.9,109.5,22.4c0,0,0,0,0,0c46.5-5.2,89-23.6,126.5-52.5c5.6-3.8,11.1-7.8,16.3-12.1
							c31.3-22.3,61.3-51.3,72.4-87.9c7.5-24.4,7.9-50.4-6.8-73.4c1.3-1,2.6-2.1,3.9-3.1c35.9-26,67.3-58.8,85.2-99.1
							C1028.6,401.9,1034.7,356.8,1011.5,317.9z M787.2,612.6c0.6,0.3,0.8,0.4,1.4,0.6c0.6,0.2,0.9,0.3,1.5,0.4
							c5.9,1.8,19.6,6.7,18.1,14.4c-0.7,4-3.3,8.7-7.3,13.6c-11.8,5.8-24.6,9.8-37.6,11.9c-0.3-0.5-0.5-0.9-0.8-1.4
							c-5.1-17,0.8-36.5,5-53C774.6,606.8,783.1,610.7,787.2,612.6z"/>
						<g>
							<path class="st3" d="M746.2,745c-38.4,2.6-75.5-3.4-109.4-22.4c-0.5-0.3-0.8-0.5-1.3-0.8c-0.5-0.4-0.7-0.6-1.2-0.9
								c-10.6-8.2-17-21.1-16.9-34.5c0.2-24.5,19.9-48.5,45.1-50.6c2.8-0.2,5.7-0.3,8.5,0c4.9-73.9,41.7-147.3,79.6-209.5
								c0.1-0.2,0.1-0.2,0.2-0.4c8.1-12.2,21.6-22.4,36.6-23.6c14.8-1.3,31.1,4.8,38.9,18.2c8.3,14.3,8.6,33.3,0.3,47.8
								c-0.2,0.3-0.2,0.4-0.4,0.7c-0.2,0.3-0.2,0.4-0.4,0.7c-6.1,10.4-12.1,20.9-17.8,31.6c6.2-5.3,13.7-9.6,22.4-12.8
								c0.2-0.1,0.3-0.1,0.6-0.2c0.2-0.1,0.3-0.1,0.6-0.2c41-13,82-40.3,98.3-79.2c5-12,10.2-27.5,2.5-40
								c-24.6-39.8-105.9-35.2-144.2-34.8c-21.7,0.2-43.8,1.4-65.4,3.8c-100.6,11-206.1,44-288.2,100.9c-7.2,5-15.6,8.6-24.2,9.5
								c-25,2.6-45.6-16.9-45.6-41.7c-0.1-18,11.5-36.6,27.5-44.7c99.2-65.2,216.8-104,333.3-117.1c23.5-2.6,47.6-4.2,71.2-4.6
								c72.1-1,172.9,7.1,214.9,77.7c23.2,38.9,17.1,84-0.2,123c-18.3,41.3-51.4,76.7-89.3,102c14.8,23.1,14.4,49.2,7,73.7
								C907.1,688.2,819.8,738.5,746.2,745C746.3,745,746.2,745,746.2,745z M762.5,652.1c0.3,0.4,0.5,0.9,0.8,1.4
								c25.8-5.2,71.1-20,77.5-49.6c1.6-7.5-12.2-12.7-18.2-14.4c-0.6-0.2-0.9-0.3-1.5-0.4c-0.6-0.3-0.8-0.4-1.4-0.6
								c-18.7-8.2-31.4-24-31.5-44.9c0-0.4,0-0.8,0-1.1C775.5,572.4,752.5,618.2,762.5,652.1z"/>
							<path class="st3" d="M389.9,404.1c0.3-7.1,4.5-17.1,12.9-20.6c114.7-75.9,255.9-116.1,391.4-118
								c59.8-0.8,138.8,3.5,183.1,51.3c30,32.4,29.2,77.2,11.3,115.5c-21.4,46.6-61.8,84.1-107.6,106.2
								c56.6,38.6,14.8,105.2-25.7,137c-56.7,44.6-139.5,62.1-204.5,25.1c-3.8-3-8.1-8.7-8.3-16.6c-0.4-15.5,16.8-28.2,31.3-21.1
								c8.3,4.5,16.6,8.4,24.9,10.9c-9.1-36.4,2-76.7,13.6-111.2c14.7-43.8,35.7-85.2,59.4-124.8c3.2-5,9-9.8,15.9-10.4
								c16.7-1.5,24.7,17.3,17.3,31.1c-22.4,37.9-42.4,77.6-56.2,119.5c-8.5,25.9-19.8,61-8.5,87.8c3.2,4.4,3.8,9.7,3.2,14.4
								c39.6-0.5,84.1-17.1,109.3-48.8c21.8-27.4,13.9-56.3-20.8-66.2c-10.3-4.1-18.9-12.5-18.6-24.3c0.4-14,10.6-24.6,23.6-28.7
								c48.7-15.5,94.1-47.7,115.7-94.8c45.6-99.6-98.6-109.2-162.1-108.5c-128.6,1.4-260.4,38.8-369.1,110
								C409.2,428.4,389.3,420.6,389.9,404.1z"/>
						</g>
						<g>
							<path class="st2" d="M389.9,404.1c0.3-7.1,4.5-17.1,12.9-20.6c114.7-75.9,255.9-116.1,391.4-118
								c59.8-0.8,138.8,3.5,183.1,51.3c30,32.4,29.2,77.2,11.3,115.5c-21.4,46.6-61.8,84.1-107.6,106.2
								c56.6,38.6,14.8,105.2-25.7,137c-56.7,44.6-139.5,62.1-204.5,25.1c-3.8-3-8.1-8.7-8.3-16.6c-0.4-15.5,16.8-28.2,31.3-21.1
								c8.3,4.5,16.6,8.4,24.9,10.9c-9.1-36.4,2-76.7,13.6-111.2c14.7-43.8,35.7-85.2,59.4-124.8c3.2-5,9-9.8,15.9-10.4
								c16.7-1.5,24.7,17.3,17.3,31.1c-22.4,37.9-42.4,77.6-56.2,119.5c-8.5,25.9-19.8,61-8.5,87.8c3.2,4.4,3.8,9.7,3.2,14.4
								c39.6-0.5,84.1-17.1,109.3-48.8c21.8-27.4,13.9-56.3-20.8-66.2c-10.3-4.1-18.9-12.5-18.6-24.3c0.4-14,10.6-24.6,23.6-28.7
								c48.7-15.5,94.1-47.7,115.7-94.8c45.6-99.6-98.6-109.2-162.1-108.5c-128.6,1.4-260.4,38.8-369.1,110
								C409.2,428.4,389.3,420.6,389.9,404.1z"/>
						</g>
					</g>
				</g>
			</g>
		</g>
	</g>
</g>
</svg>
