<?xml version="1.0" encoding="utf-8"?>
<!-- Generator: Adobe Illustrator 27.7.0, SVG Export Plug-In . SVG Version: 6.00 Build 0)  -->
<svg version="1.1" id="katman_1" xmlns="http://www.w3.org/2000/svg" xmlns:xlink="http://www.w3.org/1999/xlink" x="0px" y="0px"
	 viewBox="0 0 808 573" style="enable-background:new 0 0 808 573;" xml:space="preserve">
<style type="text/css">
	.st0{fill:#F195AC;}
	.st1{fill:#FFFFFF;}
</style>
<g>
	
		<image style="overflow:visible;opacity:0.75;" width="800" height="500" xlink:href="9ABF84EA.png"  transform="matrix(1 0 0 1 14 43)">
	</image>
	<g>
		<g>
			<g>
				<g>
					<path d="M478.8,307.4c0.4-0.4,0.8-0.8,1.2-1.2c0.4-0.4,0.8-0.8,1.2-1.2c0.4-0.4,0.8-0.8,1.2-1.2c0.4-0.4,0.8-0.8,1.2-1.2
						c0.4-0.4,0.8-0.8,1.2-1.2c0.4-0.4,0.8-0.8,1.2-1.2c0.4-0.4,0.8-0.8,1.2-1.2c0.4-0.4,0.8-0.8,1.2-1.2c0.4-0.4,0.8-0.8,1.2-1.2
						c0.4-0.4,0.8-0.8,1.2-1.2c0.4-0.4,0.8-0.8,1.2-1.2c0.4-0.4,0.8-0.8,1.2-1.2c6-5.6,9.8-13.6,9.8-22.3
						c0-20.9-19.2-32.1-38.1-33.1c-14.5-0.8-29.2,0.3-43.6,1.7c-12.9,1.3-26,3.2-39,5.3c-0.9-1.6-2.1-3.1-3.4-4.5
						c-4.6-4.7-11-6.9-18-6.2c-7.5,0.8-14.5,4.6-20.4,10.8c-0.4,0.4-0.8,0.8-1.2,1.2c-0.4,0.4-0.8,0.8-1.2,1.2
						c-0.4,0.4-0.8,0.8-1.2,1.2c-0.4,0.4-0.8,0.8-1.2,1.2c-0.4,0.4-0.8,0.8-1.2,1.2c-0.4,0.4-0.8,0.8-1.2,1.2
						c-0.4,0.4-0.8,0.8-1.2,1.2c-0.4,0.4-0.8,0.8-1.2,1.2c-18.3,3.8-36.4,7.9-54.6,12.2c-6.6,1.3-12.4,4.9-16.8,9.9
						c-0.1,0.1-0.3,0.3-0.4,0.5c-0.4,0.4-0.8,0.8-1.2,1.2c-0.4,0.4-0.8,0.8-1.2,1.2c-0.4,0.4-0.8,0.8-1.2,1.2
						c-0.4,0.4-0.8,0.8-1.2,1.2c-0.4,0.4-0.8,0.8-1.2,1.2c-0.4,0.4-0.8,0.8-1.2,1.2c-0.4,0.4-0.8,0.8-1.2,1.2
						c-0.4,0.4-0.8,0.8-1.2,1.2c-0.1,0.1-0.2,0.2-0.3,0.3c0.2-14.4-13.2-24.4-26.5-23.2c-7.7,0.7-15.3,4.7-21.5,11.1
						c-0.4,0.4-0.8,0.8-1.2,1.2c-0.4,0.4-0.8,0.8-1.2,1.2c-0.4,0.4-0.8,0.8-1.2,1.2c-0.4,0.4-0.8,0.8-1.2,1.2
						c-0.4,0.4-0.8,0.8-1.2,1.2c-0.4,0.4-0.8,0.8-1.2,1.2c-0.4,0.4-0.8,0.8-1.2,1.2c-0.4,0.4-0.8,0.8-1.2,1.2
						c-0.4,0.4-0.8,0.8-1.2,1.2c-0.4,0.4-0.8,0.8-1.2,1.2c-0.4,0.4-0.8,0.8-1.2,1.2c-0.4,0.4-0.8,0.8-1.2,1.2
						c-0.4,0.4-0.8,0.8-1.2,1.2c-0.4,0.4-0.8,0.8-1.2,1.2c-3.1,2.9-5.9,6.4-8.2,10.5c-0.1,0.1-0.1,0.2-0.2,0.3
						c-0.1,0.1-0.1,0.2-0.2,0.3c-5.4,9.7-10.5,19.6-15.5,29.5c-1.4,2.2-2.9,4.4-4.5,6.7c-1.5,0-3.2,0-4.6,0.3
						c-18.1,2.9-33.6,12.5-47.4,26.2c-0.4,0.4-0.8,0.8-1.3,1.3c-0.4,0.4-0.8,0.8-1.3,1.2c-0.4,0.4-0.8,0.8-1.3,1.2
						c-0.4,0.4-0.8,0.8-1.3,1.3c-0.4,0.4-0.8,0.8-1.3,1.2c-0.4,0.4-0.8,0.8-1.3,1.2c-0.4,0.4-0.8,0.8-1.3,1.3
						c-0.4,0.4-0.8,0.8-1.3,1.2c-0.4,0.4-0.8,0.8-1.3,1.2c-0.4,0.4-0.8,0.8-1.3,1.3c-0.4,0.4-0.8,0.8-1.3,1.3
						c-0.4,0.4-0.8,0.8-1.3,1.2c-0.4,0.4-0.8,0.8-1.3,1.3c-0.4,0.4-0.8,0.8-1.3,1.3c-5,5-9.3,9.9-12.4,14
						c-15.1,19.3-32.4,48.2-25,73.5c3.1,10.4,12.1,17.8,22.8,19.7c3.3,0.6,6.9,0.7,10.4,0.2c18.4-2.6,32.8-16.1,45.9-28.7
						c4.9,7.5,12,10.8,17.6,12.2c0.2,0,0.2,0.1,0.4,0.1c0.2,0,0.2,0,0.4,0.1c3.5,0.7,7.2,0.9,11.1,0.4c7.6-0.9,15.9-4.1,24.8-9.6
						c4.7,4.6,10.8,8.1,18.1,10.1c6.3,1.7,12.9,2.4,19.5,1.5c16-2,31.5-11.3,42.6-22.8c0.4-0.4,0.8-0.8,1.2-1.2
						c0.4-0.4,0.8-0.8,1.2-1.2c0.4-0.4,0.8-0.8,1.2-1.2c0.4-0.4,0.8-0.8,1.2-1.2c0.4-0.4,0.8-0.8,1.2-1.2c0.4-0.4,0.8-0.8,1.2-1.2
						c0.4-0.4,0.8-0.8,1.2-1.2c0.4-0.4,0.8-0.8,1.2-1.2c0.4-0.4,0.8-0.8,1.2-1.2c0.4-0.4,0.8-0.8,1.2-1.2c0.4-0.4,0.8-0.8,1.2-1.2
						c0.4-0.4,0.8-0.8,1.2-1.2c0.4-0.4,0.8-0.8,1.2-1.2c0.4-0.4,0.8-0.8,1.2-1.2c0.9-0.9,1.7-1.7,2.6-2.6c0.5,1,1,2,1.6,3
						c4.3,7.7,15.1,14.4,23.9,15.1c2.6,0.2,5.5,0.3,8.3,0c22.3-2.5,42.2-19.8,57.4-35.2c0.2-0.2,0.3-0.3,0.5-0.5
						c0.4-0.4,0.8-0.8,1.2-1.2c0.4-0.4,0.8-0.8,1.2-1.2c0.4-0.4,0.8-0.8,1.2-1.2c0.4-0.4,0.8-0.8,1.2-1.2c0.4-0.4,0.8-0.8,1.2-1.2
						c0.4-0.4,0.8-0.8,1.2-1.2c0.4-0.4,0.8-0.8,1.2-1.2c0.4-0.4,0.8-0.8,1.2-1.2c0.4-0.4,0.8-0.8,1.2-1.2c0.4-0.4,0.8-0.8,1.2-1.2
						c0.3-0.3,0.7-0.7,1-1c1.9-1.9,3.7-3.7,5.2-5.3c7.8-8,11.7-19.9,7.4-30.6c-4.1-10.2-14.6-16.5-25.6-15.4
						c-6.8,0.7-13.3,4.2-18.4,9.6c-0.2,0.2-0.4,0.4-0.7,0.7c-0.2,0.2-0.4,0.4-0.6,0.5c-0.2,0.2-0.4,0.4-0.6,0.6
						c-0.2,0.2-0.4,0.4-0.6,0.6c-0.2,0.2-0.4,0.4-0.6,0.6c-0.2,0.2-0.4,0.4-0.6,0.6c-0.2,0.2-0.4,0.4-0.6,0.6
						c-0.1,0.1-0.3,0.2-0.4,0.4c4.3-16.6,9.6-32.9,15-49.2c12.6-2.1,25.3-4,37.8-5.2c11-1,22.4-2.1,33.6-1c4.9,5.8,12.5,9,21.2,8.1
						c7.2-0.7,13.6-4.1,18.3-9c0.4-0.4,0.8-0.8,1.2-1.2C478,308.3,478.4,307.8,478.8,307.4z M240.7,332.3
						c-6.3,4.2-12.3,9.3-17.8,14.9c-0.4,0.4-0.8,0.8-1.2,1.2c-0.4,0.4-0.8,0.8-1.2,1.2c-0.4,0.4-0.8,0.8-1.2,1.2
						c-0.4,0.4-0.7,0.7-1.1,1.1c2.1-4.4,4.4-8.9,6.8-13.7c4-6.2,6-9.2,9.9-15.4C235.9,326.5,237.9,329.7,240.7,332.3z"/>
					<g>
						<path class="st0" d="M100.1,471.5c-3.6,0.4-7.1,0.3-10.4-0.3c-10.7-1.9-19.7-9.3-22.7-19.7c-7.4-25.3,9.9-54,24.9-73.3
							c14.4-18.4,34.5-36.1,58.5-38.8c3.5-0.4,7.1-0.4,10.5,0c5.8-8.4,11.6-16.9,17.3-25.4c5-9.9,10.1-19.7,15.5-29.5
							c0.1-0.1,0.1-0.2,0.2-0.3c0.1-0.1,0.1-0.2,0.2-0.3c6-10.5,16.4-19.2,28.5-20.3c13.3-1.2,26.2,9.6,26.5,23.5
							c0.2,10.2-5.2,20.2-10,29.1c-5.7,8.8-8.5,13.2-14.2,22c-5.4,11-10.8,21.9-15.8,33c3.3-1.8,6.9-3,10.6-3.3
							c11-1.2,21.6,5,25.7,15.2c4.3,10.6,0.5,22.6-7.4,30.5c-16.8,17.1-37.2,39.2-62.6,42.2c-3.9,0.5-7.6,0.3-11.1-0.5
							c-0.2,0-0.2,0-0.4-0.1c-0.2,0-0.2-0.1-0.4-0.1c-5.6-1.5-12.6-4.8-17.5-12.3C132.8,455.6,118.7,468.7,100.1,471.5z"/>
						<path class="st0" d="M226.3,403.1c-12.8,13.3-36.9,40.7-56.7,36.2c-14.3-3.3-13.3-23.4-10.5-35.6
							c-14,17.5-40.1,55.1-64.2,51.2c-28.7-4.7,1.3-55,10.2-67.3c12.5-16.1,33.6-35.9,56.1-30.8c2,0.5,3.7,1.7,5,3.2
							c9-12.9,19.2-26.1,26.6-38.9c5.3-9.1,10.2-20,15.6-29.9c4.9-8.1,22.9-17.9,23.8-1.4c0.2,4.7-2.3,11.1-7.3,19.1
							c-5.8,9-8.7,13.5-14.6,22.6c-9.4,19-18.8,38-26.6,57.7c-3,7.7-10,20.3-6.8,28.6c13.7-3.9,25.9-19.4,35.2-29
							C222.5,378.1,236.5,392.2,226.3,403.1z M153.1,378c-14.2-1.1-24,12.7-32.1,22c-6.6,9.3-11.9,25.2-20.1,32.8
							C121.8,429.6,141.9,393.3,153.1,378z"/>
						<path class="st0" d="M237.6,458.2c-6.6,0.7-13.2,0.1-19.5-1.6c-23.1-6.3-32.2-28.9-27.8-51.2c7.7-38.4,43.2-82.3,83.5-85.9
							c13.7-1.2,27.6,9.8,27.2,24.5c0,0.6,0,1.2-0.1,1.8c11.3,17.4,8,37,1.9,54.7C293.6,427.6,267.8,454.2,237.6,458.2z
							 M254.7,386.8c-4,4.5-7.2,9.4-9.3,13.5c1.2-1.1,2.5-2.5,3.9-4.1C251.9,392.8,253.7,389.5,254.7,386.8z"/>
						<path class="st0" d="M273.8,336c5.9-0.6,10.5,3.7,10.5,9.8c0,2-0.7,4.1-1.7,5.9c33.9,29.9-20.5,99.1-58.1,89
							C170.3,426.1,240.9,339.5,273.8,336z M260,362.5c-9.5,5.1-51.9,47.8-27.8,56.9c22.4,6.2,57.5-42.7,33.4-51.7
							C262.9,366.9,260.9,364.8,260,362.5z"/>
						<path class="st0" d="M333.6,433.9c-2.8,0.3-5.7,0.2-8.2,0c-8.8-0.7-19.6-7.2-23.8-15.1c-16.4-30.7,0.4-75.1,9.8-105.5
							c-9.6,2.1-19.2,4.4-28.7,6.9c-0.3,0.1-0.5,0.1-0.8,0.2c-0.3,0.1-0.5,0.1-0.8,0.1c-0.5,0.1-1,0.1-1.6,0.2
							c-7.4,0.8-14.3-1.3-19.5-5.9c-5.2-4.6-8.2-11.4-8.1-18.6c0.3-13.2,11-27,24.4-29.7c18.5-3.7,38.2-8.8,57.4-12.8
							c5.9-10,15.6-18.6,27.4-19.9c6.9-0.8,13.4,1.5,18,6.2c1.3,1.3,2.4,2.8,3.4,4.5c12.9-2.1,26-4,39-5.3
							c14.4-1.4,29.1-2.5,43.6-1.7c18.9,1,37.7,12.6,38.1,33.1c0.3,15-12.8,28.4-26.9,30.2c-8.5,1.1-16.3-2.3-21.2-8.1
							c-11.2-1.1-22.5,0-33.5,1.1c-16.8,1.6-33.8,4.5-50.6,7.3c-7.4,21.6-14.9,43.2-20.5,65.4c1.5-1.4,3-3,4.6-4.6
							c5.1-5.4,11.6-8.9,18.4-9.6c11-1.1,21.5,5.2,25.6,15.4c4.2,10.7,0.4,22.6-7.4,30.6C376.3,413.6,356.4,431,333.6,433.9z"/>
						<path class="st0" d="M476.2,284.1c-5.8,0.6-10.4-3.7-10.4-9.8c0,2.4,0,2.4-7.1,1.8c-32.8-3.3-67.7,4.8-99.8,10.5
							c-8,22.6-16,45.3-22.3,68.4c-2.6,9.5-10,38.8-3.4,41c7.1,2.4,25.4-15.7,33.3-23.7c9.9-10,23.5,4.6,13.7,14.9
							c-11.9,12.6-32,32.1-51.3,30.3c-41.4-5.5-0.2-106.3,6.8-126.1c-18.6,4.1-37.2,8.2-55.6,12.8c-6.2,1-11.5-3.2-11.5-9.7
							c0-5.8,4.3-11,9.5-11.8c21.8-5.2,43.7-10,65.7-14.5c-0.3,1-0.4,1.5-0.7,2.4c3.7-11.5,30.9-32.8,25.7-7.4
							c30.5-5.3,62.3-11.1,93.2-9.2c10.7,0.7,24.2,5.7,24.3,18.2C486.7,278.2,482,283.5,476.2,284.1z"/>
					</g>
					<g>
						<path class="st1" d="M226.3,403.1c-12.8,13.3-36.9,40.7-56.7,36.2c-14.3-3.3-13.3-23.4-10.5-35.6
							c-14,17.5-40.1,55.1-64.2,51.2c-28.7-4.7,1.3-55,10.2-67.3c12.5-16.1,33.6-35.9,56.1-30.8c2,0.5,3.7,1.7,5,3.2
							c9-12.9,19.2-26.1,26.6-38.9c5.3-9.1,10.2-20,15.6-29.9c4.9-8.1,22.9-17.9,23.8-1.4c0.2,4.7-2.3,11.1-7.3,19.1
							c-5.8,9-8.7,13.5-14.6,22.6c-9.4,19-18.8,38-26.6,57.7c-3,7.7-10,20.3-6.8,28.6c13.7-3.9,25.9-19.4,35.2-29
							C222.5,378.1,236.5,392.2,226.3,403.1z M153.1,378c-14.2-1.1-24,12.7-32.1,22c-6.6,9.3-11.9,25.2-20.1,32.8
							C121.8,429.6,141.9,393.3,153.1,378z"/>
						<path class="st1" d="M273.8,336c5.9-0.6,10.5,3.7,10.5,9.8c0,2-0.7,4.1-1.7,5.9c33.9,29.9-20.5,99.1-58.1,89
							C170.3,426.1,240.9,339.5,273.8,336z M260,362.5c-9.5,5.1-51.9,47.8-27.8,56.9c22.4,6.2,57.5-42.7,33.4-51.7
							C262.9,366.9,260.9,364.8,260,362.5z"/>
						<path class="st1" d="M476.2,284.1c-5.8,0.6-10.4-3.7-10.4-9.8c0,2.4,0,2.4-7.1,1.8c-32.8-3.3-67.7,4.8-99.8,10.5
							c-8,22.6-16,45.3-22.3,68.4c-2.6,9.5-10,38.8-3.4,41c7.1,2.4,25.4-15.7,33.3-23.7c9.9-10,23.5,4.6,13.7,14.9
							c-11.9,12.6-32,32.1-51.3,30.3c-41.4-5.5-0.2-106.3,6.8-126.1c-18.6,4.1-37.2,8.2-55.6,12.8c-6.2,1-11.5-3.2-11.5-9.7
							c0-5.8,4.3-11,9.5-11.8c21.8-5.2,43.7-10,65.7-14.5c-0.3,1-0.4,1.5-0.7,2.4c3.7-11.5,30.9-32.8,25.7-7.4
							c30.5-5.3,62.3-11.1,93.2-9.2c10.7,0.7,24.2,5.7,24.3,18.2C486.7,278.2,482,283.5,476.2,284.1z"/>
					</g>
				</g>
				<g>
					<path d="M750,133C721.5,81.4,644,74.5,590.3,75.3c-17.5,0.3-35.5,1.4-52.9,3.4c-86.4,9.7-173.9,38.5-247.7,87.1
						c-3.9,1.9-7.1,4.5-9.9,7.4c-0.8,0.5-1.6,1-2.4,1.5c-3.9,1.9-7.1,4.5-9.9,7.4c-0.8,0.5-1.6,1-2.4,1.5
						c-12.5,5.8-19.9,20.1-20.5,33.3c-0.8,18.4,16.2,32.9,34,31c6.4-0.7,12.6-3.1,18-7C360.8,199,436.4,174,511.2,166
						c16-1.7,32.5-2.6,48.6-2.7c29.2-0.2,89.1-3.4,107.1,26c5.4,8.9,2.5,21-1.8,29.7c-5.3,10.7-11.8,19-20.1,28.1
						c-8.8,5.2-18.9,9.5-28.6,12.5c-0.2,0.1-0.3,0.1-0.4,0.1c-0.2,0.1-0.3,0.1-0.4,0.2c-6.4,2.4-12,5.6-16.6,9.5
						c4.1-7.7,8.5-15.6,13.3-23.5c0.1-0.2,0.2-0.3,0.3-0.5c0.1-0.2,0.2-0.3,0.3-0.5c5.8-11.1,6.4-24.8-0.2-35.6
						c-6-9.8-17.5-14.8-28.9-13.6c-8.7,1-17,5.4-23.2,12.2c-4.5,2.1-8.6,5.2-12.1,9c-6.4,3-12.1,8-16.1,14.4
						c-0.1,0.1-0.1,0.2-0.2,0.3c-26.3,44.1-50.5,92.4-58,143.7c-2.6,1.7-5,3.8-7,6.1c-4.6,2.1-8.7,5.2-12.1,8.9
						c-13.4,5.7-21.5,20.4-22.1,34.4c-0.3,9,5.1,20.4,12.5,25.6c0.4,0.3,0.5,0.4,0.9,0.7c0.4,0.2,0.6,0.3,1,0.6
						c26.5,13.5,51.7,18.2,81.4,16.6c0,0,0,0,0,0c33.7-3.9,67.2-16.9,94-39c4.2-2.8,8.2-5.8,12.1-9c23.2-16.9,45.9-38.2,53.8-65.3
						c5.4-18.3,5.7-36.9-5-54.6c1-0.8,2-1.5,2.9-2.3c26.4-19.4,50.5-43.7,63.4-73.7C763.1,193.6,766.2,162.3,750,133z M583.3,352.1
						c0.4,0.2,0.6,0.3,1,0.5c0.4,0.1,0.7,0.2,1.1,0.3c4.4,1.3,14.6,5,13.5,10.7c-0.6,3-2.4,6.5-5.4,10.1c-8.4,4.3-18.6,7.5-27.9,8.8
						c-0.2-0.3-0.4-0.7-0.6-1c-3.7-12.9,0.7-26.8,3.7-39.4C574,347.8,580.3,350.7,583.3,352.1z"/>
					<g>
						<path class="st1" d="M552.9,450.5c-29.7,1.6-54.8-3.1-81.3-16.6c-0.4-0.2-0.6-0.3-1-0.6c-0.4-0.3-0.5-0.4-0.9-0.7
							c-7.4-5.3-12.6-16.9-12.5-25.6c0.1-18,15.4-35.8,33.5-37.6c2.1-0.2,4.2-0.2,6.3,0c4.1-55,30.9-109.4,59.2-155.7
							c0.1-0.1,0.1-0.2,0.2-0.3c6-9.5,16-16.3,27.2-17.6c11.4-1.3,22.9,3.8,28.9,13.6c6.6,10.7,6.1,24.5,0.2,35.6
							c-0.1,0.2-0.2,0.3-0.3,0.5c-0.1,0.2-0.2,0.3-0.3,0.5c-4.8,7.9-9.2,15.8-13.3,23.5c4.6-3.9,10.2-7.1,16.6-9.5
							c0.2-0.1,0.3-0.1,0.4-0.2c0.2-0.1,0.3-0.1,0.4-0.1c30.1-9.8,59.7-29.1,73.1-58.9c4.1-9.2,7.3-20.9,1.8-29.8
							c-18-29.4-78-26.1-107.2-25.9c-16.1,0.2-32.6,1.1-48.6,2.8c-74.7,8.2-153.1,32.7-214.3,75c-5.3,3.7-11.6,6.4-18,7
							c-17.8,1.9-34.7-12.6-33.9-31c0.6-13.1,8-27.5,20.5-33.2c73.9-48.5,161.4-77.4,247.7-87.1c17.4-2,35.4-3.1,52.9-3.4
							C644,74.5,721.5,81.4,750,133c16.2,29.3,13.1,60.6-0.2,91.4c-13.2,30.7-38.5,56.9-66.4,75.8c10.8,17.7,10.5,36.2,5.2,54.8
							C673.3,408.7,607.1,445,552.9,450.5C552.9,450.5,552.9,450.5,552.9,450.5z M564.9,381.5c0.2,0.3,0.4,0.7,0.6,1
							c20.1-3.4,52.5-15.5,57.6-36.9c1.3-5.4-9.1-9.4-13.5-10.7c-0.4-0.1-0.7-0.2-1.1-0.3c-0.4-0.2-0.6-0.3-1-0.5
							c-13.3-5.4-23.8-18.8-23.4-33.4c0-0.3,0-0.6,0-0.9C574.5,322.6,557.9,356,564.9,381.5z"/>
						<path class="st1" d="M288,197.1c-0.1-5.3,3.4-12.7,9.6-15.3c85.3-56.7,190.5-86.3,290.9-87.7c44.3-0.6,103.2,2.4,136.1,38.2
							c22.3,24.2,21.6,57.3,8.3,85.9c-15.8,34.4-45.9,62.9-80,79c42.1,28.6,10.9,78.3-19.1,101.8c-41.8,32.7-104.1,46.7-152,18.6
							c-2.9-2.2-6.2-6.4-6.2-12.3c0.1-11.8,11.8-20.9,23.2-15.7c6.2,3.4,12.3,6.2,18.5,8.1c-13.7-57.5,25.4-128.5,54.2-175.4
							c2.4-3.7,6.7-7.3,11.8-7.8c12.8-1.2,18.2,12.9,12.8,23.1c-16.5,28.3-31.5,57.6-41.7,88.8c-6.4,19.5-14.5,45.1-6.4,65.3
							c2.4,3.3,2.9,7.2,2.4,10.7c29.2,0.1,62.8-13,81.3-36.3c16-20.2,10.3-42.1-15.5-49.2c-9-4.1-13.7-9.1-13.8-18.1
							c-0.1-10.6,8-18.1,17.5-21.3c36.2-11.1,70-35.7,86-70.5c34.3-74.4-74-81.2-120.5-80.7c-95.3,1-193.5,28.7-274.4,81.8
							C301.4,215.2,288.2,209.5,288,197.1z"/>
					</g>
					<g>
						<path class="st0" d="M288,197.1c-0.1-5.3,3.4-12.7,9.6-15.3c85.3-56.7,190.5-86.3,290.9-87.7c44.3-0.6,103.2,2.4,136.1,38.2
							c22.3,24.2,21.6,57.3,8.3,85.9c-15.8,34.4-45.9,62.9-80,79c42.1,28.6,10.9,78.3-19.1,101.8c-41.8,32.7-104.1,46.7-152,18.6
							c-2.9-2.2-6.2-6.4-6.2-12.3c0.1-11.8,11.8-20.9,23.2-15.7c6.2,3.4,12.3,6.2,18.5,8.1c-13.7-57.5,25.4-128.5,54.2-175.4
							c2.4-3.7,6.7-7.3,11.8-7.8c12.8-1.2,18.2,12.9,12.8,23.1c-16.5,28.3-31.5,57.6-41.7,88.8c-6.4,19.5-14.5,45.1-6.4,65.3
							c2.4,3.3,2.9,7.2,2.4,10.7c29.2,0.1,62.8-13,81.3-36.3c16-20.2,10.3-42.1-15.5-49.2c-9-4.1-13.7-9.1-13.8-18.1
							c-0.1-10.6,8-18.1,17.5-21.3c36.2-11.1,70-35.7,86-70.5c34.3-74.4-74-81.2-120.5-80.7c-95.3,1-193.5,28.7-274.4,81.8
							C301.4,215.2,288.2,209.5,288,197.1z"/>
					</g>
				</g>
			</g>
		</g>
	</g>
</g>
</svg>
